# xmcd CD database file
#
# Track frame offsets:
#	150
#	17523
#	37263
#	64984
#	70861
#	90873
#	105615
#	133614
#	153082
#	175089
#	201890
#	225705
#
# Disc length: 3480 seconds
#
# Revision: 0
# Processed by: cddbd v1.5.2PL0 Copyright (c) Steve Scherf et al.
# Submitted via: CDex 1.70beta2
#
DISCID=960d960c
DTITLE=Vincent Bourgeyx, Pierre Boussaguet and André Ceccarelli - HIP
DYEAR=2012
DGENRE=Jazz
TTITLE0=Daahoud
TTITLE1=For Françoise
TTITLE2=Kafka's nightmare
TTITLE3=Zig zag
TTITLE4=Prelude to a kiss
TTITLE5=Shoes now
TTITLE6=Blue forest
TTITLE7=Renaissance
TTITLE8=Our love is here to stay
TTITLE9=In the wee small hours of the morning
TTITLE10=Triste
TTITLE11=I'll be seeing you
EXTD=YEAR: 2012
EXTT0=
EXTT1=
EXTT2=
EXTT3=
EXTT4=
EXTT5=
EXTT6=
EXTT7=
EXTT8=
EXTT9=
EXTT10=
EXTT11=
PLAYORDER=
